<?xml version="1.0" encoding="utf-8"?>
<!-- Generator: Adobe Illustrator 18.1.1, SVG Export Plug-In . SVG Version: 6.00 Build 0)  -->
<!DOCTYPE svg PUBLIC "-//W3C//DTD SVG 1.1//EN" "http://www.w3.org/Graphics/SVG/1.1/DTD/svg11.dtd">
<svg version="1.1" id="Layer_1" xmlns="http://www.w3.org/2000/svg" xmlns:xlink="http://www.w3.org/1999/xlink" x="0px" y="0px"
	 viewBox="0 0 50 50" enable-background="new 0 0 50 50" xml:space="preserve">
<path display="none" fill="#010101" d="M34.5,19.1c-0.7,0.3-1.5,0.5-2.2,0.6c0.8-0.5,1.4-1.2,1.7-2.2c-0.8,0.4-1.6,0.8-2.5,0.9
	c-0.7-0.8-1.7-1.2-2.8-1.2c-2.2,0-3.9,1.7-3.9,3.9c0,0.3,0,0.6,0.1,0.9c-3.2-0.2-6.1-1.7-8-4.1c-0.3,0.6-0.5,1.2-0.5,2
	c0,1.4,0.7,2.5,1.7,3.2c-0.6,0-1.2-0.2-1.8-0.5c0,0,0,0,0,0c0,1.9,1.3,3.5,3.1,3.8c-0.3,0.1-0.7,0.1-1,0.1c-0.3,0-0.5,0-0.7-0.1
	c0.5,1.6,1.9,2.7,3.6,2.7c-1.3,1-3,1.7-4.8,1.7c-0.3,0-0.6,0-0.9-0.1c1.7,1.1,3.8,1.8,6,1.8c7.2,0,11.1-5.9,11.1-11.1
	c0-0.2,0-0.3,0-0.5C33.3,20.6,34,19.9,34.5,19.1z"/>
<path fill="#010101" d="M29.3,21.7h-3v-1.9c0-0.7,0.5-0.9,0.8-0.9c0.3,0,2.1,0,2.1,0v-3.2l-2.9,0c-3.2,0-3.9,2.4-3.9,3.9v2.1h-1.8
	V25h1.8c0,4.2,0,9.3,0,9.3h3.9c0,0,0-5.1,0-9.3H29L29.3,21.7z"/>
<path display="none" fill="#010101" d="M15.2,17.6v14.8h19.6V17.6H15.2z M25.6,26c-0.1,0.1-0.4,0.2-0.6,0.2c-0.2,0-0.5-0.1-0.6-0.2
	l-6.9-7h15.1L25.6,26z M21.5,25l-5,5.1V19.9L21.5,25z M22.5,26l1,1c0.4,0.4,1,0.6,1.6,0.6c0.6,0,1.2-0.2,1.6-0.6l0.9-0.9l4.9,5.1
	h-15L22.5,26z M28.5,25l4.9-5v10L28.5,25z"/>
</svg>
