<?xml version="1.0" encoding="utf-8"?>
<!-- Generator: Adobe Illustrator 18.1.1, SVG Export Plug-In . SVG Version: 6.00 Build 0)  -->
<!DOCTYPE svg PUBLIC "-//W3C//DTD SVG 1.1//EN" "http://www.w3.org/Graphics/SVG/1.1/DTD/svg11.dtd">
<svg version="1.1" id="Layer_1" xmlns="http://www.w3.org/2000/svg" xmlns:xlink="http://www.w3.org/1999/xlink" x="0px" y="0px"
	 viewBox="0 0 210 60" enable-background="new 0 0 210 60" xml:space="preserve">
<g>
	<g>
		<path fill="#333132" d="M77.4,44.2V15.6h5.2c0.3,0,0.6,0.3,0.6,0.6v23.3c0,0.1,0.1,0.2,0.3,0.2h11.6c0.3,0,0.6,0.3,0.6,0.6v3.8
			H77.4z"/>
		<path fill="#333132" d="M133.8,15.6v17.1c0,1.7-0.3,3.3-0.9,4.7c-0.6,1.4-1.4,2.7-2.6,3.7c-1.1,1-2.5,1.9-4.1,2.4
			c-1.6,0.6-3.4,0.9-5.4,0.9c-2,0-3.8-0.3-5.4-0.9c-1.6-0.6-2.9-1.4-4.1-2.4c-1.1-1-2-2.3-2.6-3.7c-0.6-1.4-0.9-3-0.9-4.7V15.6h5.1
			c0.4,0,0.7,0.3,0.7,0.7v16.3c0,1.1,0.2,2.1,0.5,3c0.3,0.9,0.8,1.6,1.4,2.3c0.6,0.6,1.4,1.1,2.2,1.5c0.9,0.3,1.9,0.5,3,0.5
			c1.1,0,2.1-0.2,3-0.5c0.9-0.3,1.6-0.8,2.2-1.4c0.6-0.6,1.1-1.4,1.4-2.2c0.3-0.9,0.5-1.9,0.5-3V16.4c0-0.4,0.3-0.7,0.7-0.7H133.8z"
			/>
		<path fill="#333132" d="M207.8,44.2h-19.6V15.6h19.6v3.9c0,0.2-0.1,0.3-0.3,0.3h-13.3c-0.1,0-0.3,0.1-0.3,0.2v7.5
			c0,0.1,0.1,0.2,0.3,0.2h10.4c0.1,0,0.3,0.1,0.3,0.2v3.6c0,0.1-0.1,0.2-0.3,0.2h-10.4c-0.1,0-0.3,0.1-0.3,0.2v7.6
			c0,0.1,0.1,0.2,0.3,0.2h13.3c0.2,0,0.3,0.1,0.3,0.3V44.2z"/>
		<path fill="#333132" d="M166.2,15.7c0.2-0.1,0.5-0.1,0.9-0.1h5.3c0.2,0,0.3,0.2,0.2,0.4c-1.8,2.5-12.6,17.8-12.7,17.9
			c-0.1,0.2-3.1-4.4-3.1-4.4l8.9-13.2C165.8,15.9,166,15.8,166.2,15.7"/>
		<path fill="#333132" d="M173,43.8c0.1,0.2,0,0.4-0.2,0.4h-4.9c-0.4,0-0.6-0.1-0.9-0.3c-0.2-0.2-0.4-0.4-0.6-0.6l-9.6-13.8h6.1
			L173,43.8z"/>
		<path fill="#0077B5" d="M146.7,43.8c-0.1,0.2,0,0.4,0.2,0.4h4.9c0.4,0,0.6-0.1,0.9-0.3c0.2-0.2,0.4-0.4,0.6-0.6l9.6-13.8l-3.1-4.6
			L146.7,43.8z"/>
		<path fill="#00C1F3" d="M153.5,15.8c-0.2-0.1-0.5-0.1-0.9-0.1h-5.3c-0.2,0-0.3,0.2-0.2,0.4c1.8,2.5,12.7,17.9,12.7,17.9l3.1-4.4
			L154,16.3C153.8,16,153.7,15.9,153.5,15.8"/>
		<path fill="none" stroke="#00C1F3" stroke-width="0.2" stroke-miterlimit="10" d="M153.5,15.8c-0.2-0.1-0.5-0.1-0.9-0.1h-5.3
			c-0.2,0-0.3,0.2-0.2,0.4c1.8,2.5,12.7,17.9,12.7,17.9l3.1-4.4L154,16.3C153.8,16,153.7,15.9,153.5,15.8z"/>
	</g>
	<g>
		<path fill="#00C1F3" d="M22.8,29.1h13.5c0,0,0,0,0,0l-6.7-10L22.8,29.1z"/>
		<path fill="#0077B5" d="M22.8,29.1h13.5c0,0,0,0,0,0l-6.7,10L22.8,29.1z"/>
		<path fill="#00C1F3" d="M56.5,27.6l-5.3-7.8L39.5,2.4c-0.3-0.5-0.7-0.8-1-1c-0.4-0.2-1-0.3-1.8-0.3h-3.4c0.4,0,0.6,0.4,0.4,0.7
			c-0.7,1-2.2,3.1-4.1,5.7L44.8,29l6.5,9.1l5.2-7.4c0.3-0.5,0.5-1,0.5-1.6C56.9,28.6,56.8,28.1,56.5,27.6"/>
		<path fill="#0077B5" d="M29.6,7.6c1.9-2.6,4.6-6.5,4.6-6.5H25h-2.5c-0.8,0-1.4,0.1-1.8,0.3c-0.4,0.2-0.7,0.5-1,1L7.9,19.8l6.4,9.2
			C19,22.4,25.4,13.5,29.6,7.6"/>
		<path fill="#0077B5" d="M44.8,29L29.6,51.1l-5.4,7.8h10h0.8c0.7,0,1.3-0.2,1.8-0.6c0.5-0.4,0.9-0.8,1.2-1.3l13.2-18.9L44.8,29z"/>
		<path fill="#00C1F3" d="M24.2,58.9l5.4-7.8L14.3,29l-6.4-9.2l-5.2,7.8c-0.7,1-0.6,2.2,0,3.2L21.1,57c0.3,0.5,0.7,0.9,1.2,1.3
			c0.5,0.4,1,0.6,1.8,0.6"/>
	</g>
</g>
</svg>
